# xmcd
#
# Track frame offsets: 
#        150
#        15102
#        31757
#        48890
#        68185
#        89017
#        109862
#        127465
#        142412
#        158670
#        174897
#
# Disc length: 2544 seconds
#
# Revision: 3
# Processed by: cddbd v1.5.1PL2 Copyright (c) Steve Scherf et al.
# Submitted via: ExactAudioCopy v0.95a5
#
DISCID=9009ee0b
DTITLE=Omar and The Howlers - Wall Of Pride
DYEAR=1988
DGENRE=Blues
TTITLE0=Wall Of Pride
TTITLE1=Rattlesnake Shake
TTITLE2=Don't Lead Me On
TTITLE3=Rock It While You Can
TTITLE4=Down In Mississippi
TTITLE5=Movin'
TTITLE6=We Gotta Get Out Of This Place
TTITLE7=Bad Seed
TTITLE8=Kings Ransom
TTITLE9=Dimestore Hoo Doo
TTITLE10=Meet Me Down At The River
EXTD=
EXTT0=
EXTT1=
EXTT2=
EXTT3=
EXTT4=
EXTT5=
EXTT6=
EXTT7=
EXTT8=
EXTT9=
EXTT10=
PLAYORDER=
